<svg xmlns="http://www.w3.org/2000/svg" xmlns:xlink="http://www.w3.org/1999/xlink" width="484.813" height="477.299" viewBox="0 0 484.813 477.299">
  <defs>
    <linearGradient id="linear-gradient" x1="0.759" y1="0.54" x2="0.759" y2="1.54" gradientUnits="objectBoundingBox">
      <stop offset="0" stop-color="gray" stop-opacity="0.251"/>
      <stop offset="0.54" stop-color="gray" stop-opacity="0.122"/>
      <stop offset="1" stop-color="gray" stop-opacity="0.102"/>
    </linearGradient>
  </defs>
  <g id="bg-1" transform="translate(-49.79 0.08)">
    <path id="Path_16" data-name="Path 16" d="M288.444,576.231,79.913,575.2,59.2,526.642l73.226-5.361-12.732-53.244,144.869-18.824L125.847,401.024l12.245-2.924L361.183,434.47l-12.245,83.156-17.606,45.69Z" transform="translate(-3.677 -155.607)" fill="#98b7d6"/>
    <path id="Path_17" data-name="Path 17" d="M98.4,655.27s12.793-2.071,20.469,7.006c0,0-5.6,4.447-17.728-1.706Z" transform="translate(-18.997 -256.028)" fill="#98b7d6"/>
    <path id="Path_18" data-name="Path 18" d="M92.828,655.1s-8.163,10.052-4.143,21.2c0,0,6.64-2.681,7.371-16.2Z" transform="translate(-14.765 -256.041)" fill="#98b7d6"/>
    <path id="Path_19" data-name="Path 19" d="M84.2,625.921s5.117-9.382,25.587,3.777c0,0-2.741,6.336-11.758,5.787S86.576,630.855,84.2,625.921Z" transform="translate(-13.447 -243.371)" fill="#98b7d6"/>
    <path id="Path_20" data-name="Path 20" d="M74.536,626.894s-10.6-1.218-11.636,23.089c0,0,6.762,1.4,11.514-6.275S77.216,631.645,74.536,626.894Z" transform="translate(-5.123 -245.014)" fill="#98b7d6"/>
    <path id="Path_21" data-name="Path 21" d="M548.2,626.9s-13.829,16.875-2.863,42.34L435.074,717.062l-10.6,2.193L419.6,697.933l3.229-26.927V656.325Z" transform="translate(-144.52 -245.021)" fill="#fffcf7"/>
    <path id="Path_22" data-name="Path 22" d="M59.2,591.241,211.806,563.4,414,595.627l-125.557,45.2Z" transform="translate(-3.677 -220.205)" fill="#98b7d6"/>
    <path id="Path_23" data-name="Path 23" d="M59.2,591.241,211.806,563.4,414,595.627l-125.557,45.2Z" transform="translate(-3.677 -220.205)" fill="#98b7d6"/>
    <path id="Path_24" data-name="Path 24" d="M55.523,609s-14.255,27.049,2.193,52.026l226.319,49.041s-14.073-21.566.731-51.417Z" transform="translate(0 -238.026)" fill="#98b7d6"/>
    <path id="Path_25" data-name="Path 25" d="M55.523,609s-14.255,27.049,2.193,52.026l226.319,49.041s-14.073-21.566.731-51.417Z" transform="translate(0 -238.026)" opacity="0.1"/>
    <path id="Path_26" data-name="Path 26" d="M67.873,624.4s-8.163,19.8,0,32.592" transform="translate(-5.649 -244.044)" opacity="0.1"/>
    <path id="Path_27" data-name="Path 27" d="M289.019,740.315,415.368,686.4s7.067,1.523,2.5,6.7-126.41,52.392-126.41,52.392L62.7,691.274Z" transform="translate(-5.045 -268.273)" fill="#98b7d6"/>
    <path id="Path_28" data-name="Path 28" d="M289.019,740.315,415.368,686.4s7.067,1.523,2.5,6.7-126.41,52.392-126.41,52.392L62.7,691.274Z" transform="translate(-5.045 -268.273)" opacity="0.1"/>
    <path id="Path_29" data-name="Path 29" d="M413.726,699.4s-12.184,14.621,0,36.552" transform="translate(-140.109 -273.354)" opacity="0.1"/>
    <rect id="Rectangle_3" data-name="Rectangle 3" width="57.631" height="0.609" transform="translate(278.001 444.061) rotate(-18.451)" opacity="0.1"/>
    <rect id="Rectangle_4" data-name="Rectangle 4" width="70.18" height="0.609" transform="matrix(0.935, -0.355, 0.355, 0.935, 277.92, 448.975)" opacity="0.1"/>
    <rect id="Rectangle_5" data-name="Rectangle 5" width="81.39" height="0.609" transform="matrix(0.925, -0.379, 0.379, 0.925, 278.311, 454.781)" opacity="0.1"/>
    <rect id="Rectangle_6" data-name="Rectangle 6" width="93.635" height="0.609" transform="translate(279.235 459.818) rotate(-24.312)" opacity="0.1"/>
    <rect id="Rectangle_7" data-name="Rectangle 7" width="102.407" height="0.609" transform="translate(279.846 462.319) rotate(-23.609)" opacity="0.1"/>
    <rect id="Rectangle_8" data-name="Rectangle 8" width="122.572" height="0.609" transform="translate(281.265 466.515) rotate(-23.36)" opacity="0.1"/>
    <path id="Path_30" data-name="Path 30" d="M152.2,599.441,259.42,576.9l65.368,12.489-87.908,28.328Z" transform="translate(-40.021 -225.481)" fill="#fffcf7" opacity="0.3"/>
    <path id="Path_31" data-name="Path 31" d="M561.018,616.3s5.544,2.254,2.315,5.666S435.4,661.5,435.4,661.5Z" transform="translate(-150.695 -240.878)" fill="#98b7d6"/>
    <path id="Path_32" data-name="Path 32" d="M647.5,530.8s-13.829,16.875-2.863,42.34L534.374,620.962l-10.6,2.254L518.9,601.894l3.29-26.927V560.224Z" transform="translate(-183.326 -207.465)" fill="#fffcf7"/>
    <path id="Path_33" data-name="Path 33" d="M158.5,495.041,311.106,467.2,513.3,499.427l-125.557,45.2Z" transform="translate(-42.483 -182.611)" fill="#4c4c66"/>
    <path id="Path_34" data-name="Path 34" d="M154.723,512.9s-14.255,27.049,2.193,52.026l226.319,49.041s-14.012-21.566.731-51.478Z" transform="translate(-38.767 -200.47)" fill="#4c4c66"/>
    <path id="Path_35" data-name="Path 35" d="M154.723,512.9s-14.255,27.049,2.193,52.026l226.319,49.041s-14.012-21.566.731-51.478l-71.581-15.474Z" transform="translate(-38.767 -200.47)" opacity="0.1"/>
    <path id="Path_36" data-name="Path 36" d="M167.173,528.3s-8.163,19.8,0,32.592" transform="translate(-44.455 -206.488)" opacity="0.1"/>
    <path id="Path_37" data-name="Path 37" d="M388.319,644.215,514.668,590.3s7.067,1.523,2.5,6.7-126.41,52.392-126.41,52.392L162,595.174Z" transform="translate(-43.851 -230.718)" fill="#4c4c66"/>
    <path id="Path_38" data-name="Path 38" d="M388.319,644.215,514.668,590.3s7.067,1.523,2.5,6.7-126.41,52.392-126.41,52.392L162,595.174Z" transform="translate(-43.851 -230.718)" opacity="0.1"/>
    <path id="Path_39" data-name="Path 39" d="M513.026,603.3s-12.184,14.621,0,36.552" transform="translate(-178.915 -235.798)" opacity="0.1"/>
    <rect id="Rectangle_9" data-name="Rectangle 9" width="57.631" height="0.609" transform="translate(338.488 385.455) rotate(-18.451)" opacity="0.1"/>
    <rect id="Rectangle_10" data-name="Rectangle 10" width="70.18" height="0.609" transform="matrix(0.935, -0.355, 0.355, 0.935, 338.41, 390.375)" opacity="0.1"/>
    <rect id="Rectangle_11" data-name="Rectangle 11" width="81.39" height="0.609" transform="matrix(0.925, -0.379, 0.379, 0.925, 338.804, 396.174)" opacity="0.1"/>
    <rect id="Rectangle_12" data-name="Rectangle 12" width="93.635" height="0.609" transform="translate(339.722 401.215) rotate(-24.312)" opacity="0.1"/>
    <rect id="Rectangle_13" data-name="Rectangle 13" width="102.468" height="0.609" transform="translate(340.341 403.712) rotate(-23.609)" opacity="0.1"/>
    <rect id="Rectangle_14" data-name="Rectangle 14" width="122.572" height="0.609" transform="translate(341.757 407.912) rotate(-23.36)" opacity="0.1"/>
    <path id="Path_40" data-name="Path 40" d="M251.5,503.341,358.72,480.8l65.368,12.489-87.908,28.328Z" transform="translate(-78.827 -187.926)" fill="#fffcf7" opacity="0.45"/>
    <path id="Path_41" data-name="Path 41" d="M660.357,520.1s5.544,2.254,2.315,5.666S534.8,565.3,534.8,565.3Z" transform="translate(-189.54 -203.284)" fill="#4c4c66"/>
    <path id="Path_42" data-name="Path 42" d="M656.942,420.7s-13.829,30.277-2.863,55.742l-110.266,34.42-10.539,2.254L528.4,491.794l3.229-26.927V450.125Z" transform="translate(-187.039 -164.439)" fill="#fffcf7"/>
    <path id="Path_43" data-name="Path 43" d="M167.9,385.041,320.506,357.2l202.256,32.227-125.618,45.2Z" transform="translate(-46.157 -139.623)" fill="#98b7d6"/>
    <path id="Path_44" data-name="Path 44" d="M164.2,402.8s-14.316,27.049,2.132,52.026l226.319,49.041s-14.073-21.566.731-51.417Z" transform="translate(-42.452 -157.444)" fill="#98b7d6"/>
    <path id="Path_45" data-name="Path 45" d="M164.2,402.8s-14.316,27.049,2.132,52.026l226.319,49.041s-14.073-21.566.731-51.417Z" transform="translate(-42.452 -157.444)" opacity="0.1"/>
    <path id="Path_46" data-name="Path 46" d="M176.673,418.2s-8.163,19.8,0,32.592" transform="translate(-48.167 -163.462)" opacity="0.1"/>
    <path id="Path_47" data-name="Path 47" d="M397.819,537.241l126.349-40.512s7.067,1.523,2.5,6.7-126.41,38.989-126.41,38.989L171.5,488.2Z" transform="translate(-47.564 -190.817)" fill="#98b7d6"/>
    <path id="Path_48" data-name="Path 48" d="M397.819,537.241l126.349-40.512s7.067,1.523,2.5,6.7-126.41,38.989-126.41,38.989L171.5,488.2Z" transform="translate(-47.564 -190.817)" opacity="0.1"/>
    <path id="Path_49" data-name="Path 49" d="M522.526,493.2s-12.184,14.621,0,36.552" transform="translate(-182.627 -192.772)" opacity="0.1"/>
    <rect id="Rectangle_15" data-name="Rectangle 15" width="57.631" height="0.609" transform="translate(344.221 318.45) rotate(-18.451)" opacity="0.1"/>
    <rect id="Rectangle_16" data-name="Rectangle 16" width="70.18" height="0.609" transform="matrix(0.935, -0.355, 0.355, 0.935, 344.203, 323.348)" opacity="0.1"/>
    <rect id="Rectangle_17" data-name="Rectangle 17" width="81.39" height="0.609" transform="matrix(0.925, -0.379, 0.379, 0.925, 344.594, 329.142)" opacity="0.1"/>
    <rect id="Rectangle_18" data-name="Rectangle 18" width="93.635" height="0.609" transform="translate(345.456 334.213) rotate(-24.312)" opacity="0.1"/>
    <rect id="Rectangle_19" data-name="Rectangle 19" width="102.407" height="0.609" transform="translate(346.131 336.684) rotate(-23.609)" opacity="0.1"/>
    <rect id="Rectangle_20" data-name="Rectangle 20" width="122.572" height="0.609" transform="translate(347.522 340.831) rotate(-23.36)" opacity="0.1"/>
    <path id="Path_50" data-name="Path 50" d="M261,393.241,368.22,370.7l65.307,12.489-87.847,28.328Z" transform="translate(-82.54 -144.899)" fill="#fffcf7" opacity="0.3"/>
    <path id="Path_51" data-name="Path 51" d="M669.857,410.1s5.544,2.254,2.315,5.666S544.3,455.3,544.3,455.3Z" transform="translate(-193.252 -160.296)" fill="#98b7d6"/>
    <path id="Path_52" data-name="Path 52" d="M831.731,216.081s-23.15-1.4-20.469,14.865a4,4,0,0,0,2.071,4.2s.061-1.218,2.376-.792a11.636,11.636,0,0,0,2.5.122,5.242,5.242,0,0,0,3.046-1.279h0s6.518-2.681,9.016-13.342c0,0,1.889-2.315,1.828-2.924l-3.9,1.645s1.34,2.8.3,5.178c0,0-.122-5.056-.853-4.935a20.829,20.829,0,0,0-2.01.975s2.315,4.935.548,8.468c0,0,.67-6.031-1.279-8.163l-2.741,1.584s2.68,5.056.853,9.2c0,0,.487-6.336-1.462-8.833l-2.5,1.949s2.5,5,.975,8.468c0,0-.183-7.371-1.523-7.981a14.554,14.554,0,0,0-2.5,2.741s1.706,3.655.67,5.544c0,0-.67-4.935-1.218-4.935,0,0-2.193,3.29-2.376,5.483a11.457,11.457,0,0,1,1.888-5.787,6.781,6.781,0,0,0-3.351,1.706s.366-2.315,3.838-2.5a16.272,16.272,0,0,1,2.254-2.62s-3.533-.3-5.666.67c0,0,1.889-2.193,6.275-1.218l2.437-2.01s-4.63-.609-6.579.061c0,0,2.254-1.949,7.25-.548l2.68-1.584a24.369,24.369,0,0,0-6.275-.548s2.5-1.34,7.067.122l1.95-.853s-2.863-.548-3.716-.67-.914-.3-.914-.3a9.711,9.711,0,0,1,5.422.609C827.71,217.786,831.792,216.324,831.731,216.081Z" transform="translate(-297.495 -84.463)" fill="#98b7d6" opacity="0.24"/>
    <path id="Path_53" data-name="Path 53" d="M358.023,262.571s-10.113-20.9-22.906-10.6a3.952,3.952,0,0,0-2.62,3.838s1.1-.548,1.828,1.706a15.4,15.4,0,0,0,1.1,2.254,4.911,4.911,0,0,0,2.62,2.071h0s5.544,4.386,16.083,1.4c0,0,2.924.487,3.412.183l-3.351-2.62s-1.828,2.559-4.386,2.741c0,0,4.386-2.559,3.9-3.168-.122-.122-1.828-1.279-1.828-1.279s-3.168,4.386-7.128,4.63c0,0,5.6-2.376,6.458-5.056l-2.741-1.645s-3.107,4.813-7.615,5.239c0,0,5.787-2.68,7.006-5.544l-2.924-1.218s-3.107,4.63-6.884,5c0,0,6.336-3.777,6.214-5.239a14.1,14.1,0,0,0-3.594-.853s-2.315,3.29-4.508,3.29c0,0,3.96-2.985,3.716-3.472,0,0-3.9-.3-5.97.609a11.837,11.837,0,0,1,5.97-1.218,6.391,6.391,0,0,0-3.107-2.071s2.193-.853,4.082,2.132c0,0,3.046.366,3.412.731,0,0-1.462-3.229-3.29-4.63,0,0,2.8.548,4.082,4.874l2.924,1.157s-1.706-4.325-3.29-5.727c0,0,2.8,1.036,3.96,6.092l2.68,1.584a22.554,22.554,0,0,0-2.62-5.727s2.376,1.523,3.351,6.214l1.706,1.279s-.914-2.8-1.218-3.594-.183-.914-.183-.914a10.15,10.15,0,0,1,2.132,5.056C354.551,259.951,357.84,262.754,358.023,262.571Z" transform="translate(-110.479 -97.386)" fill="#98b7d6" opacity="0.24"/>
    <path id="Path_54" data-name="Path 54" d="M257.728,188.324s-19.251-12.976-25.16,2.437a3.926,3.926,0,0,0-.366,4.63s.67-1.036,2.437.548a12.889,12.889,0,0,0,2.132,1.4,5.613,5.613,0,0,0,3.29.487h0s7.006.975,14.56-6.945c0,0,2.8-1.036,3.046-1.584l-4.2-.548s-.3,3.107-2.376,4.569c0,0,2.437-4.447,1.767-4.691-.122-.061-2.254-.183-2.254-.183s-.487,5.422-3.838,7.615c0,0,3.655-4.874,2.985-7.676h-3.168s-.244,5.727-3.9,8.407c0,0,3.655-5.239,3.229-8.346l-3.107.426s-.366,5.6-3.412,7.8c0,0,3.594-6.458,2.741-7.615a13.73,13.73,0,0,0-3.533,1.1s-.366,4.021-2.254,5.117c0,0,1.949-4.569,1.462-4.874,0,0-3.533,1.706-4.874,3.533a11.813,11.813,0,0,1,4.569-4.082,6.456,6.456,0,0,0-3.716-.183s1.462-1.828,4.63-.183c0,0,2.8-1.218,3.29-1.1a14.825,14.825,0,0,0-5.178-2.315s2.741-.914,6.031,2.132l3.168-.487s-3.655-2.863-5.727-3.29c0,0,2.924-.487,6.518,3.229h3.107A24.757,24.757,0,0,0,244.508,184s2.8.122,6.031,3.655l2.071.244s-2.193-1.949-2.863-2.5-.609-.731-.609-.731a10.1,10.1,0,0,1,4.386,3.29C253.4,187.836,257.667,188.567,257.728,188.324Z" transform="translate(-71.043 -71.631)" fill="#98b7d6" opacity="0.24"/>
    <path id="Path_55" data-name="Path 55" d="M741.823,158.971s-10.052-20.9-22.906-10.6a3.952,3.952,0,0,0-2.62,3.838s1.1-.548,1.828,1.706a12.882,12.882,0,0,0,1.1,2.254,4.911,4.911,0,0,0,2.62,2.071h0s5.544,4.386,16.083,1.4c0,0,2.924.487,3.411.122l-3.351-2.62s-1.828,2.559-4.386,2.8c0,0,4.386-2.559,3.9-3.168-.122-.122-1.828-1.279-1.828-1.279s-3.168,4.386-7.128,4.63c0,0,5.6-2.376,6.458-5.056l-2.8-1.584s-3.107,4.813-7.615,5.239c0,0,5.787-2.68,7.006-5.544l-2.924-1.218s-3.168,4.63-6.884,5c0,0,6.336-3.777,6.214-5.239a14.1,14.1,0,0,0-3.594-.853s-2.315,3.29-4.508,3.29c0,0,3.96-2.985,3.716-3.472,0,0-3.9-.3-5.97.609a11.837,11.837,0,0,1,5.97-1.218,6.391,6.391,0,0,0-3.107-2.071s2.193-.853,4.082,2.132c0,0,3.046.366,3.411.731,0,0-1.462-3.229-3.351-4.63,0,0,2.8.548,4.082,4.935l2.985,1.157s-1.706-4.325-3.29-5.727c0,0,2.8,1.036,3.96,6.092l2.741,1.584a22.556,22.556,0,0,0-2.62-5.727s2.376,1.523,3.351,6.214l1.706,1.279s-.914-2.8-1.218-3.594-.183-.914-.183-.914a10.15,10.15,0,0,1,2.132,5.056C738.351,156.412,741.64,159.154,741.823,158.971Z" transform="translate(-260.467 -56.899)" fill="#98b7d6" opacity="0.24"/>
    <path id="Path_56" data-name="Path 56" d="M342.289,109.435s-22.967-3.229-21.566,13.159a3.934,3.934,0,0,0,1.706,4.325s.122-1.218,2.437-.609a11.213,11.213,0,0,0,2.5.3,5.329,5.329,0,0,0,3.168-1.036h0s6.7-2.193,10.052-12.55c0,0,2.071-2.193,2.01-2.741l-4.021,1.34s1.1,2.924-.122,5.178c0,0,.244-5.056-.487-5-.183,0-2.071.792-2.071.792s1.889,5.056-.122,8.529c0,0,1.157-5.97-.609-8.224l-2.863,1.4s2.254,5.3.122,9.26c0,0,.975-6.275-.731-8.894l-2.62,1.767s2.132,5.178.3,8.468c0,0,.366-7.371-.914-8.041a17.676,17.676,0,0,0-2.741,2.5s1.462,3.777.183,5.6c0,0-.244-5-.792-5.056,0,0-2.437,3.107-2.8,5.3a11.359,11.359,0,0,1,2.315-5.666,6.569,6.569,0,0,0-3.472,1.462s.548-2.254,4.082-2.193a15.944,15.944,0,0,1,2.5-2.437,14.982,14.982,0,0,0-5.666.183s2.01-2.01,6.336-.67l2.62-1.828s-4.569-.975-6.579-.487c0,0,2.376-1.767,7.25.061l2.8-1.4a24.028,24.028,0,0,0-6.214-1.036s2.559-1.157,7.067.67l2.01-.731s-2.8-.792-3.655-.975c-.792-.183-.853-.366-.853-.366a9.648,9.648,0,0,1,5.361,1.036C338.208,110.9,342.35,109.678,342.289,109.435Z" transform="translate(-105.833 -42.697)" fill="#98b7d6" opacity="0.24"/>
    <path id="Path_57" data-name="Path 57" d="M794.684,328.771s-10.052-20.9-22.967-10.6a3.952,3.952,0,0,0-2.62,3.838s1.1-.548,1.828,1.706a12.88,12.88,0,0,0,1.1,2.254,4.911,4.911,0,0,0,2.62,2.071h0s5.544,4.386,16.083,1.4c0,0,2.924.487,3.411.122l-3.351-2.62s-1.828,2.559-4.386,2.741c0,0,4.386-2.559,3.9-3.168-.122-.122-1.828-1.279-1.828-1.279s-3.168,4.386-7.128,4.63c0,0,5.6-2.376,6.458-5.117l-2.741-1.645s-3.107,4.813-7.615,5.239c0,0,5.787-2.681,7.006-5.544l-2.924-1.218s-3.168,4.63-6.884,5c0,0,6.336-3.777,6.214-5.239a14.1,14.1,0,0,0-3.594-.853s-2.315,3.29-4.508,3.29c0,0,3.96-2.985,3.716-3.472,0,0-3.9-.3-5.97.609a11.837,11.837,0,0,1,5.97-1.218,6.391,6.391,0,0,0-3.107-2.071s2.193-.853,4.082,2.132c0,0,3.046.366,3.411.731a14.665,14.665,0,0,0-3.29-4.63s2.8.548,4.082,4.874l2.924,1.157s-1.706-4.325-3.29-5.727c0,0,2.8,1.036,3.96,6.092l2.741,1.523a22.556,22.556,0,0,0-2.62-5.727s2.376,1.523,3.351,6.214l1.706,1.218s-.914-2.8-1.218-3.594-.183-.914-.183-.914a10.149,10.149,0,0,1,2.132,5.056C791.151,326.151,794.5,328.954,794.684,328.771Z" transform="translate(-281.101 -123.257)" fill="#98b7d6" opacity="0.24"/>
    <path id="Path_58" data-name="Path 58" d="M582.5,229.822c-3.96-10.844-25.891-11.819-35.456-9.077-6.762,1.949-21.017,4.2-28.633,5.3l-.487-.487c.975-.3,1.036-1.036.914-2.071a32.286,32.286,0,0,1,.061-4.2c4.691,1.462,8.834-2.01,8.834-2.01h0c5.483-2.437,4.021-12.854,5.056-15.717.792-2.132,1.645-14.682,2.01-20.957h.061l.061-2.132c.061-.914.061-1.462.061-1.462s.548-15.291,1.584-18.4c.975-2.863,1.767-17.24,1.888-19.495v-.3l-.061-1.34c.061-.975.061-2.071.061-3.168,0-5.239-.548-11.758-.609-12.854V120.9c.061-2.193-.244-13.342-9.686-17.545-3.472-1.584-7.676-3.412-11.758-5.239-1.036-9.077-3.472-18.032-3.229-27.171,0-1.4.122-2.741.244-4.082,0,.366-.061.792-.061,1.218v2.681c.365-11.392,4.691-22.845,4.264-33.994-.061,1.1-.122,2.193-.244,3.29a36.588,36.588,0,0,0-1.158-11.209,6.72,6.72,0,0,0-1.889-3.472,8.1,8.1,0,0,0-3.351-1.34,69.638,69.638,0,0,0-8.773-1.645,12.684,12.684,0,0,0-1.95-3.838C494.108,10.082,484.909,2.1,474.126.274,468.7-.64,462.429.091,458.774,3.99l-1.1,1.1c-2.01,2.376-2.863,5.483-4.874,7.859-.122.183-.3.3-.426.487-3.96,3.533-10.174,4.325-14.621,7.493a16.282,16.282,0,0,0-2.193,1.889,35.845,35.845,0,0,0-4.752,5.787c-2.01,2.8-4.021,5.727-4.691,9.077-1.279,6.7,3.29,13.037,4.143,19.8,1.889,15.108-14.8,28.511-11.636,43.375a19.656,19.656,0,0,0,5.361,9.625c-6.518,5.909-12.062,11.636-12.062,11.636v.366h-1.036l.122,1.218h-.122l.548,6.64-.548,9.625v.914h.061c.183,3.533.914,16.2,1.828,18.885,1.036,3.107,1.584,18.4,1.584,18.4s1.157,21.627,2.193,24.49-.426,13.281,5.056,15.717h0a12.129,12.129,0,0,0,5.544,2.315c-.3,2.254-.122,3.96.792,4.447a2.4,2.4,0,0,0,1.279.366,10,10,0,0,0-.975,1.767,25.768,25.768,0,0,1-6.4-1.523c-5.909-2.437-25.526-7.92-31.191-4.082s-19.373,7.371-13.1,22.845,9.26,15.9,9.26,15.9a22.127,22.127,0,0,1,5.056,5.056c1.889,2.863,19.616,9.382,24.064,9.382a44.142,44.142,0,0,1,5.666.3s-4.813,4.2-4.143,6.64c.609,2.437-1.462,22.053-1.462,22.053s4.874,4.935,6.945-1.523l.061.122c.366.548,2.5,2.924,6.458-.122a41.368,41.368,0,0,1,5.178-3.29l19.19-2.741c2.01-.122,4.021-.122,6.031-.061,3.046.244,6.031-1.523,7.92-2.924,3.96,1.523,8.468,3.168,10.6,3.777,4.325,1.218,24.125,6.519,28.755,4.874a6.052,6.052,0,0,0,2.5-1.767l4.447.122-2.071.426s4.021.061,9.5.122l-.244.122,6.884-.061c10.052.122,21.383.122,22.845-.183,2.315-.487,14.438-.183,17.972,0h.975s13.281-2.62,7.8-16.144c-4.2-10.356-17.18-13.342-22.906-14.194,1.645-.3,3.046-.548,3.96-.731,4.021-.609,11.819-4.264,12.428-5.483s7.189-4.874,8.833-6.945S586.464,240.665,582.5,229.822ZM472.42,260.1l-.67.183-.426.122-.853.853c-.67-.426-1.4-.914-2.132-1.4C469.679,259.977,471.019,260.038,472.42,260.1Zm58.057,17.18Z" transform="translate(-127.465 0)" fill="url(#linear-gradient)"/>
    <path id="Path_59" data-name="Path 59" d="M598.1,273.376s9.321,24.368,14.621,21.931,3.838-12.793,4.874-15.657,2.132-24.368,2.132-24.368.487-15.23,1.523-18.337c.914-2.8,1.706-17.119,1.828-19.373v-.3L622.042,199.6l-5.666-1.4-13.22,4.874-1.828,10.417-.731,4.082-.3,1.767Z" transform="translate(-214.277 -77.487)" fill="#fcdebe"/>
    <path id="Path_60" data-name="Path 60" d="M603.1,314.9s8.894,7.31,11.575,7.92S619,329.155,619,329.155" transform="translate(-216.231 -123.093)" opacity="0.1"/>
    <path id="Path_61" data-name="Path 61" d="M462.377,275.076s-9.321,24.368-14.621,21.931-3.838-12.793-4.874-15.657-2.132-24.368-2.132-24.368-.487-15.23-1.523-18.337c-.914-2.8-1.706-17.119-1.828-19.373v-.3l1.036-17.667,5.666-1.4,13.22,4.874,1.828,10.417.731,4.082.3,1.767Z" transform="translate(-151.476 -78.151)" fill="#fcdebe"/>
    <rect id="Rectangle_21" data-name="Rectangle 21" width="20.835" height="32.41" transform="translate(350.804 66.555)" fill="#3e373a"/>
    <rect id="Rectangle_22" data-name="Rectangle 22" width="20.835" height="32.41" transform="translate(350.804 66.555)" opacity="0.1"/>
    <path id="Path_62" data-name="Path 62" d="M469.16,361.949s-7.128,7.8-4.447,9.26,19.677,28.023,19.677,28.023,56.047,6.884,66.586-3.473,10.356-28.876,10.356-28.876-8.468,1.828-9.443.853-6.031-5.787-6.031-5.787S474.034,357.563,469.16,361.949Z" transform="translate(-161.915 -140.718)" fill="#4b4b5b"/>
    <path id="Path_63" data-name="Path 63" d="M469.16,361.949s-7.128,7.8-4.447,9.26,19.677,28.023,19.677,28.023,56.047,6.884,66.586-3.473,10.356-28.876,10.356-28.876-8.468,1.828-9.443.853-6.031-5.787-6.031-5.787S474.034,357.563,469.16,361.949Z" transform="translate(-161.915 -140.718)" opacity="0.02"/>
    <path id="Path_64" data-name="Path 64" d="M560.271,165.056l-18.276,14.621-5.544.426-2.01.122-34.055,2.5-35.334-2.559-5.239-.366-6.7-.487-14.012-13.4a249.561,249.561,0,0,1,18.581-17.789c3.412-2.8,6.64-5.117,9.016-6.031l.426-.122a9.963,9.963,0,0,0,3.838-2.68c6.884-7.067,13.22-24.551,13.22-24.551S514.459,99.08,510.8,119.61s13.585,15.413,13.585,15.413l5.666,2.62,2.254,1.036,5.727,2.62,12.915,5.909C561.124,151.837,560.271,165.056,560.271,165.056Z" transform="translate(-152.141 -42.637)" fill="#fcdebe"/>
    <circle id="Ellipse_5" data-name="Ellipse 5" cx="27.231" cy="27.231" r="27.231" transform="translate(319.613 34.328)" opacity="0.1"/>
    <path id="Path_65" data-name="Path 65" d="M559.667,205.483H437.4v-.3l1.036-17.667a249.567,249.567,0,0,1,18.581-17.789l76.76-3.046,3.594-3.777,12.915,5.909c10.174,4.691,9.321,17.911,9.321,17.911S561.008,202.011,559.667,205.483Z" transform="translate(-151.476 -63.692)" opacity="0.1"/>
    <path id="Path_66" data-name="Path 66" d="M559.667,204.483H437.4v-.3l1.036-17.667a249.563,249.563,0,0,1,18.581-17.789l76.76-3.046,3.594-3.777,12.915,5.909c10.174,4.691,9.321,17.911,9.321,17.911S561.008,201.011,559.667,204.483Z" transform="translate(-151.476 -63.301)" fill="#708387"/>
    <path id="Path_67" data-name="Path 67" d="M500.315,147.1s19.312,24.551,44.959-.487,2.863,55.925,2.863,55.925L492.7,209.122Z" transform="translate(-173.087 -55.451)" opacity="0.1"/>
    <path id="Path_68" data-name="Path 68" d="M500.315,149.1s19.312,24.551,44.959-.487,2.863,55.925,2.863,55.925L492.7,211.122Z" transform="translate(-173.087 -56.232)" fill="#708387"/>
    <path id="Path_69" data-name="Path 69" d="M541.62,159.014l2.01,31.13,2.193,10.356,1.645,7.92s4.264,60.92,3.046,63.966.609,5.483.853,7.128-.244,5.666-.061,7.493,0,2.62-4.691,2.01c-4.691-.67-11.148-1.767-11.148-1.767s-16.448,1.218-22.114-.792-16.449-2.01-16.449-2.01-16.266.426-21.5-.183-8.1,6.518-11.575,4.447,4.082-21.749,6.518-27.414-3.229-20.1-3.229-20.1l7.31-40.573,1.645-9.2V162.547l.426-.122a9.963,9.963,0,0,0,3.838-2.68l1.828,29.059,57.265,2.01V158.1" transform="translate(-161.452 -61.816)" opacity="0.1"/>
    <path id="Path_70" data-name="Path 70" d="M541.62,157.014l2.01,31.13,2.193,10.356,1.645,7.92s4.264,60.92,3.046,63.966.609,5.483.853,7.128-.244,5.666-.061,7.493,0,2.62-4.691,2.01c-4.691-.67-11.148-1.767-11.148-1.767s-16.448,1.218-22.114-.792-16.449-2.01-16.449-2.01-16.266.426-21.5-.183-8.1,6.518-11.575,4.447,4.082-21.749,6.518-27.414-3.229-20.1-3.229-20.1l7.31-40.573,1.645-9.2V160.547l.426-.122a9.963,9.963,0,0,0,3.838-2.68l1.828,29.059,57.265,2.01V156.1" transform="translate(-161.452 -61.034)" fill="#708387"/>
    <path id="Path_71" data-name="Path 71" d="M542.7,32.572a7.093,7.093,0,0,0-1.828-3.472,7.929,7.929,0,0,0-3.229-1.34,67.028,67.028,0,0,0-8.468-1.645,14.44,14.44,0,0,0-1.828-3.777c-5.97-8.407-14.8-16.388-25.221-18.154-5.422-.914-11.758-.122-15.23,4.2-1.889,2.376-2.741,5.483-4.691,7.8-3.716,4.508-10.417,5.056-15.108,8.529-2.5,1.828-4.325,4.447-6.092,7.067-1.949,2.8-3.9,5.666-4.508,9.016-1.218,6.64,3.168,12.976,3.96,19.677,1.828,14.986-14.255,28.328-11.209,43.132,1.767,8.651,9.747,14.682,17.972,17.789,2.924,1.1,6.214,2.193,7.615,4.935.609,1.218.731,2.62,1.279,3.838,1.949,4.082,8.224,4.264,11.636,1.279s4.447-7.859,4.874-12.367c1.645-19.738-6.275-39.172-5.361-58.971.3-5.97,1.949-12.732,7.31-15.474,7.189-3.655,15.9,2.437,23.82,1.279a46.71,46.71,0,0,1,2.254,28.815c-1.279,5.239-3.472,10.356-3.594,15.778-.244,8.285,4.2,15.778,8.041,23.089a11.547,11.547,0,0,1,1.645,4.447,10.974,10.974,0,0,1-.853,4.63c-2.193,5.848-5.909,11.27-6.336,17.545a2.792,2.792,0,0,0,.487,2.071,2.56,2.56,0,0,0,1.584.731c6.579,1.157,12.245-4.691,15.474-10.539a49.032,49.032,0,0,0,6.092-21.018c.67-12.428-3.777-24.612-3.533-37.04C540.024,60.352,546.421,46.157,542.7,32.572Z" transform="translate(-155.958 -1.534)" opacity="0.1"/>
    <path id="Path_72" data-name="Path 72" d="M543.7,31.572a7.094,7.094,0,0,0-1.828-3.472,7.929,7.929,0,0,0-3.229-1.34,67.03,67.03,0,0,0-8.468-1.645,14.44,14.44,0,0,0-1.828-3.777c-5.97-8.407-14.8-16.388-25.221-18.154-5.422-.914-11.758-.122-15.23,4.2-1.889,2.376-2.741,5.483-4.691,7.8-3.716,4.508-10.417,5.056-15.108,8.529-2.5,1.828-4.325,4.447-6.092,7.067-1.949,2.8-3.9,5.666-4.508,9.016-1.218,6.64,3.168,12.976,3.96,19.677,1.828,14.986-14.255,28.328-11.209,43.132,1.767,8.651,9.747,14.682,17.972,17.789,2.924,1.1,6.214,2.193,7.615,4.935.609,1.218.731,2.62,1.279,3.838,1.949,4.082,8.224,4.264,11.636,1.279s4.447-7.859,4.874-12.367c1.645-19.738-6.275-39.172-5.361-58.971.3-5.97,1.949-12.732,7.31-15.474,7.189-3.655,15.9,2.437,23.82,1.279a46.711,46.711,0,0,1,2.254,28.815c-1.279,5.239-3.473,10.356-3.594,15.778-.244,8.285,4.2,15.778,8.042,23.089a11.549,11.549,0,0,1,1.645,4.447,10.976,10.976,0,0,1-.853,4.63c-2.193,5.848-5.909,11.27-6.336,17.545a2.792,2.792,0,0,0,.487,2.071,2.56,2.56,0,0,0,1.584.731c6.579,1.157,12.245-4.691,15.474-10.539a49.031,49.031,0,0,0,6.092-21.018c.67-12.428-3.777-24.612-3.533-37.04C541.024,59.352,547.421,45.157,543.7,31.572Z" transform="translate(-156.349 -1.143)" fill="#3e373a"/>
    <path id="Path_73" data-name="Path 73" d="M581.8,481.719l24.185.792L602.513,464.6l-18.52,1.767Z" transform="translate(-207.907 -181.595)" fill="#708387"/>
    <path id="Path_74" data-name="Path 74" d="M632.637,398.8c-1.645,2.01-7.92,5.666-8.529,6.884s-8.1,4.874-12,5.483-16.022,3.229-18.276,4.691c-1.584,1.036-14.438,4.264-22.906,6.092a55.3,55.3,0,0,1-6.945,1.218c-3.655.183-43.68-13.4-43.68-13.4l7.737-7.92.427-.122c2.193-.731,12.245-4.143,17.85-5.787,6.275-1.828,13.585-9.321,13.585-9.321s10.783-3.655,12.184-4.082-3.655-14.194-3.655-14.194,23.333-3.229,32.471-5.97,30.277-1.706,34.115,9.016S634.282,396.794,632.637,398.8Z" transform="translate(-183.873 -141.142)" fill="#4b4b5b"/>
    <path id="Path_75" data-name="Path 75" d="M496.939,465.466s-4.691,4.874-9.321,4.447-21.018,1.218-21.018,1.218a32.527,32.527,0,0,0-8.224,4.752c-3.838,2.985-5.848.609-6.214.122l-.061-.122c-2.01,6.4-6.7,1.523-6.7,1.523s2.01-19.495,1.4-21.931,4.021-6.64,4.021-6.64l5.483-1.4,13.89-3.533,19.921,6.884Z" transform="translate(-154.603 -173.505)" fill="#708387"/>
    <path id="Path_76" data-name="Path 76" d="M456.2,449.8l-4.143,28.511-.061-.122c-2.01,6.4-6.7,1.523-6.7,1.523s2.01-19.495,1.4-21.931,4.021-6.64,4.021-6.64Z" transform="translate(-154.564 -175.811)" opacity="0.1"/>
    <path id="Path_77" data-name="Path 77" d="M510.4,316.7s10.783,3.655,20.1,0" transform="translate(-180.004 -123.796)" opacity="0.1"/>
    <path id="Path_78" data-name="Path 78" d="M570.7,328s4.447,2.254,7.92,0" transform="translate(-203.569 -128.212)" opacity="0.1"/>
    <path id="Path_79" data-name="Path 79" d="M570.7,336.036s7.493,1.036,8.955-1.036" transform="translate(-203.569 -130.948)" opacity="0.1"/>
    <path id="Path_80" data-name="Path 80" d="M566.7,352.564s14.134-1.828,17.606-4.264" transform="translate(-202.006 -136.145)" opacity="0.1"/>
    <path id="Path_81" data-name="Path 81" d="M496,348.3s7.92,4.447,13.829,4.264" transform="translate(-174.377 -136.145)" opacity="0.1"/>
    <path id="Path_82" data-name="Path 82" d="M570.925,448.026a55.3,55.3,0,0,1-6.945,1.218c-3.655.183-43.68-13.4-43.68-13.4l7.737-7.92.427-.122c1.218.853,2.193,1.584,2.924,2.132,3.351,2.62,6.579-.792,7.8-.792s11.758,8.712,11.758,8.712,9.747,2.254,11.392,4.264,7.31,1.645,8.346,3.046A5.3,5.3,0,0,1,570.925,448.026Z" transform="translate(-183.873 -167.213)" opacity="0.1"/>
    <path id="Path_83" data-name="Path 83" d="M441.872,369.682s-9.869.548-15.535-1.828-24.551-7.92-30.034-4.021-18.7,7.31-12.611,22.723,8.955,15.839,8.955,15.839a21.349,21.349,0,0,1,4.874,5.056c1.828,2.863,18.885,9.321,23.15,9.321s11.758,0,22.358,7.31,20.1,8.1,20.1,8.1,13.4,5.483,17.545,6.7,23.272,6.519,27.719,4.874S515.707,432,515.707,432s2.01-9.138,1.036-10.539c-1.036-1.4-6.7-1.036-8.346-3.046S497,414.154,497,414.154s-10.539-8.712-11.758-8.712-4.447,3.472-7.8.792a180.413,180.413,0,0,0-21.018-13.4C448.695,388.811,441.872,369.682,441.872,369.682Z" transform="translate(-129.874 -141.688)" fill="#4b4b5b"/>
    <path id="Path_84" data-name="Path 84" d="M447.7,383.847a11.692,11.692,0,0,1,9.991,2.62c4.874,4.082,21.261,12.245,21.261,12.245" transform="translate(-155.502 -149.944)" opacity="0.1"/>
    <path id="Path_85" data-name="Path 85" d="M631.169,383.6s-21.749,3.29-25.769,7.737" transform="translate(-217.13 -149.94)" opacity="0.1"/>
    <path id="Path_86" data-name="Path 86" d="M652.864,474.46h-.975c-3.412-.122-15.108-.487-17.3,0-2.62.609-37.588,0-37.588,0l6.823-1.4s-2.559-8.894-.914-9.625c0,0-9.138-6.031-2.254-10.052a21.771,21.771,0,0,1,14.316-2.376l17.3-5.848L635.624,444s19.495,1.036,24.795,14.438S652.864,474.46,652.864,474.46Z" transform="translate(-213.847 -173.544)" fill="#708387"/>
    <path id="Path_87" data-name="Path 87" d="M675.491,474.5h-.975c5.666-4.691,18.52-18.946-19.616-29.3l3.351-1.1s19.495,1.036,24.795,14.438C688.284,471.88,675.491,474.5,675.491,474.5Z" transform="translate(-236.474 -173.583)" opacity="0.1"/>
    <circle id="Ellipse_6" data-name="Ellipse 6" cx="1.097" cy="1.097" r="1.097" transform="translate(402.099 282.944)" fill="#4b4b5b"/>
    <circle id="Ellipse_7" data-name="Ellipse 7" cx="1.097" cy="1.097" r="1.097" transform="translate(395.885 284.711)" fill="#4b4b5b"/>
    <g id="Group_5" data-name="Group 5" transform="translate(293.786 38.288)" opacity="0.1">
      <path id="Path_88" data-name="Path 88" d="M547.964,85.276a47.568,47.568,0,0,0-3.472-19.555c-7.92,1.157-16.57-4.935-23.82-1.279-5.361,2.681-7.006,9.5-7.31,15.474-.061,1.584-.061,3.168-.061,4.752a15.964,15.964,0,0,1,.061-1.706c.3-5.97,1.949-12.732,7.31-15.474,7.189-3.655,15.9,2.437,23.82,1.279A47.918,47.918,0,0,1,547.964,85.276Z" transform="translate(-474.924 -63.04)"/>
      <path id="Path_89" data-name="Path 89" d="M466.694,84.977a21.415,21.415,0,0,0-.061-3.96c-.67-5.361-3.594-10.478-4.082-15.717-.67,6.275,3.351,12.367,4.082,18.763A4.607,4.607,0,0,1,466.694,84.977Z" transform="translate(-455.063 -63.838)"/>
      <path id="Path_90" data-name="Path 90" d="M494.043,175.85c-.366,4.508-1.462,9.382-4.874,12.367s-9.747,2.8-11.636-1.279c-.609-1.218-.731-2.62-1.279-3.838-1.34-2.8-4.691-3.9-7.615-4.935-8.224-3.107-16.2-9.138-17.972-17.789a15.854,15.854,0,0,1-.3-2.376,20.151,20.151,0,0,0,.3,5.422c1.767,8.651,9.747,14.682,17.972,17.789,2.924,1.1,6.214,2.193,7.615,4.935.609,1.218.731,2.62,1.279,3.838,1.949,4.082,8.224,4.264,11.636,1.279s4.447-7.859,4.874-12.367a69.609,69.609,0,0,0,.183-7.128C494.226,173.169,494.165,174.509,494.043,175.85Z" transform="translate(-450.306 -100.065)"/>
      <path id="Path_91" data-name="Path 91" d="M599.3,94.091v2.62c.365-11.331,4.508-22.723,4.082-33.811C603.077,73.135,599.544,83.613,599.3,94.091Z" transform="translate(-508.532 -62.9)"/>
      <path id="Path_92" data-name="Path 92" d="M571.719,171.558a8.845,8.845,0,0,0,.122-2.193,11.548,11.548,0,0,0-1.645-4.447c-3.533-6.7-7.554-13.585-8.041-21.018,0,.3-.061.609-.061.975-.244,8.224,4.2,15.778,8.042,23.089A12.674,12.674,0,0,1,571.719,171.558Z" transform="translate(-493.989 -94.554)"/>
      <path id="Path_93" data-name="Path 93" d="M589.874,174.018a49.106,49.106,0,0,1-6.153,21.018c-3.229,5.848-8.894,11.7-15.474,10.539a2.56,2.56,0,0,1-1.584-.731,1.327,1.327,0,0,1-.3-.487l-.183,1.462a2.792,2.792,0,0,0,.487,2.071,2.56,2.56,0,0,0,1.584.731c6.579,1.157,12.245-4.691,15.474-10.539a49.97,49.97,0,0,0,6.153-21.018c.061-1.4.061-2.863.061-4.264A8.581,8.581,0,0,0,589.874,174.018Z" transform="translate(-495.573 -105.848)"/>
    </g>
    <path id="Path_94" data-name="Path 94" d="M606.7,470.859s15.413,6.458,25.587-7.859" transform="translate(-217.638 -180.969)" fill="none" stroke="#000" stroke-miterlimit="10" stroke-width="1" opacity="0.1"/>
    <path id="Path_95" data-name="Path 95" d="M611.7,492.026s12.611-8.163,28.633-.244" transform="translate(-219.592 -190.866)" fill="none" stroke="#000" stroke-miterlimit="10" stroke-width="1" opacity="0.1"/>
    <path id="Path_96" data-name="Path 96" d="M473.3,487.378s5.3-11.94,19.434-2.863" transform="translate(-165.506 -188.047)" fill="none" stroke="#000" stroke-miterlimit="10" stroke-width="1" opacity="0.1"/>
    <path id="Path_97" data-name="Path 97" d="M445.2,194.139l10.783-9.747s41.791-2.741,43.558,11.453c0,0,14.8-16.875,45.995-13.1l13.22,10.478-36.43,16.022L486.87,221.553l-26.074-11.7Z" transform="translate(-154.525 -71.232)" opacity="0.1"/>
    <path id="Path_98" data-name="Path 98" d="M445.2,195.139l10.783-9.747s41.791-2.741,43.558,11.453c0,0,14.8-16.875,45.995-13.1l13.22,10.478-36.43,16.022L486.87,222.553l-26.074-11.7Z" transform="translate(-154.525 -71.623)" fill="#fffcf7"/>
    <path id="Path_99" data-name="Path 99" d="M437.4,204.8l4.752,57.082,50.564,2.559L490.523,207.6l-.061-.975Z" transform="translate(-151.476 -80.066)" opacity="0.1"/>
    <path id="Path_100" data-name="Path 100" d="M437.4,202.8l4.752,57.082,50.564,2.559L490.523,205.6l-.061-.975Z" transform="translate(-151.476 -79.284)" fill="#98b7d6"/>
    <path id="Path_101" data-name="Path 101" d="M601.848,202.8,549.7,210.659v57.326l50.99-7.371Z" transform="translate(-195.363 -79.284)" opacity="0.1"/>
    <path id="Path_102" data-name="Path 102" d="M601.848,200.8,549.7,208.659v57.326l50.99-7.371Z" transform="translate(-195.363 -78.503)" fill="#98b7d6"/>
    <path id="Path_103" data-name="Path 103" d="M597.045,223.8,568.9,226.907l.609,9.625,27.536-2.985Z" transform="translate(-202.866 -87.491)" fill="#fffcf7" opacity="0.3"/>
    <path id="Path_104" data-name="Path 104" d="M448.915,314.119l2.863,7.737s4.264,3.655,8.955,1.828,8.712-2.741,10.783-4.508c2.01-1.767,4.874-10.722,4.874-10.722s2.863-9.747,5.666-12.184,10.356-36,0-32.714-18.276,33.75-18.276,33.75a7.1,7.1,0,0,1-4.447,2.437c-2.62.183-7.92-.426-8.955,1.828C449.341,303.762,445.869,309.61,448.915,314.119Z" transform="translate(-155.498 -102.938)" fill="#fcdebe"/>
    <path id="Path_105" data-name="Path 105" d="M539.891,213.238A17.434,17.434,0,0,1,524.6,209.4l2.193,56.839a15.5,15.5,0,0,0,13.1,4.325Z" transform="translate(-185.554 -81.864)" opacity="0.1"/>
    <path id="Path_106" data-name="Path 106" d="M539.891,211.238A17.434,17.434,0,0,1,524.6,207.4l2.193,56.839a15.5,15.5,0,0,0,13.1,4.325Z" transform="translate(-185.554 -81.082)" fill="#98b7d6"/>
    <path id="Path_107" data-name="Path 107" d="M539.891,211.238A17.434,17.434,0,0,1,524.6,207.4l2.193,56.839a15.5,15.5,0,0,0,13.1,4.325Z" transform="translate(-185.554 -81.082)" opacity="0.1"/>
    <path id="Path_108" data-name="Path 108" d="M551.7,199.587s21.2-6.458,26.744-5.544" transform="translate(-196.144 -75.828)" opacity="0.1"/>
    <path id="Path_109" data-name="Path 109" d="M497.4,196.11s-20.591-4.874-24-3.472" transform="translate(-165.545 -75.214)" opacity="0.1"/>
    <path id="Path_110" data-name="Path 110" d="M573.7,202.323s14.194-5.178,19.312-2.741" transform="translate(-204.742 -77.772)" opacity="0.1"/>
    <path id="Path_111" data-name="Path 111" d="M561.9,411.861a46.121,46.121,0,0,1,7.006-4.325,115.131,115.131,0,0,0,10.357-6.336" transform="translate(-200.13 -156.818)" opacity="0.1"/>
    <path id="Path_112" data-name="Path 112" d="M463.1,316.7s-8.894,7.31-11.575,7.92-4.325,6.336-4.325,6.336" transform="translate(-155.306 -123.796)" opacity="0.1"/>
    <path id="Path_113" data-name="Path 113" d="M602.047,312.319l-2.863,7.737s-4.265,3.655-8.955,1.828-8.712-2.741-10.783-4.508c-2.01-1.767-4.874-10.722-4.874-10.722s-2.863-9.747-5.666-12.184-10.356-36,0-32.714,18.276,33.75,18.276,33.75a7.1,7.1,0,0,0,4.447,2.437c2.62.183,7.92-.426,8.955,1.828C601.681,301.962,605.093,307.871,602.047,312.319Z" transform="translate(-200.801 -102.235)" fill="#fcdebe"/>
    <path id="Path_114" data-name="Path 114" d="M618.6,321.5s5.787,3.716,5.787,8.224" transform="translate(-222.288 -125.672)" opacity="0.1"/>
    <circle id="Ellipse_8" data-name="Ellipse 8" cx="27.231" cy="27.231" r="27.231" transform="translate(319.674 32.988)" fill="#fcdebe"/>
    <path id="Path_115" data-name="Path 115" d="M500.8,68.5c3.29-.548,6.214-2.437,9.321-3.533,7.067-2.5,14.865-.792,21.992,1.462,2.741.853,5.544,1.828,8.407,1.828s5.909-1.157,7.371-3.655a8.21,8.21,0,0,0-.061-7.615,21.978,21.978,0,0,0-5-6.153c-6.336-5.97-14.194-11.575-22.906-10.966a32.681,32.681,0,0,0-10.052,2.863,113.044,113.044,0,0,0-11.819,5.97c-2.924,1.706-8.346,3.96-10.052,7.067C484.287,62.777,494.826,69.417,500.8,68.5Z" transform="translate(-170.949 -15.595)" fill="#3e373a"/>
    <path id="Path_116" data-name="Path 116" d="M548.052,73.213c-1.462,2.5-4.508,3.655-7.371,3.655a28.775,28.775,0,0,1-8.407-1.767c-7.128-2.254-14.925-3.96-21.992-1.462-3.168,1.1-6.031,3.046-9.321,3.533-4.813.731-12.55-3.412-13.4-8.773-.914,6.153,8.041,11.453,13.4,10.6,3.29-.548,6.214-2.437,9.321-3.533,7.067-2.5,14.865-.792,21.992,1.462,2.741.853,5.544,1.828,8.407,1.767s5.909-1.157,7.371-3.655a7.509,7.509,0,0,0,.853-4.447A6.04,6.04,0,0,1,548.052,73.213Z" transform="translate(-171.053 -26.762)" opacity="0.1"/>
  </g>
</svg>
