<svg xmlns="http://www.w3.org/2000/svg" width="416" height="200" viewBox="0 0 416 200">
  <g id="Group_6" data-name="Group 6" transform="translate(-1343 -326)">
    <rect id="Rectangle_24" data-name="Rectangle 24" width="416" height="200" rx="16" transform="translate(1343 326)" fill="#84cdcb"/>
    <g id="undraw_candidate_ubwv" transform="translate(1466.792 379.168)">
      <path id="Path_117" data-name="Path 117" d="M797.671,669.826,796.4,654.08l-3.62,16.651s.048,4.2.168,8.8h4.637C797.746,674.273,797.671,669.826,797.671,669.826Z" transform="translate(-635.871 -532.701)" fill="#f2f2f2"/>
      <path id="Path_118" data-name="Path 118" d="M526.454,672.252a32.056,32.056,0,0,1-.753-4.476l-.507-5.447c-.213-1.492-.432-2.806-.652-3.966-1.614-8.272-3.279-8.571-3.279-8.571-.072.055-.141.116-.213.178a5.365,5.365,0,0,0-.545.576c-2.653,3.372-4.453,12.118-5.4,17.919-.522,3.2-.782,5.511-.782,5.511s.236.982.559,2.384h12.106A21.521,21.521,0,0,0,526.454,672.252Z" transform="translate(-429.791 -529.527)" fill="#f2f2f2"/>
      <ellipse id="Ellipse_9" data-name="Ellipse 9" cx="24.694" cy="22.471" rx="24.694" ry="22.471" transform="translate(14.786 11.289)" fill="#3f3d56"/>
      <path id="Path_120" data-name="Path 120" d="M470.118,536.3h0s8.318-5.719,8.318-8.318,5.719-19.5,8.838-11.957-4.419,18.2-4.419,18.2S474.536,549.3,469.6,551.9a11.856,11.856,0,0,1-9.1,1.04v-7.018l4.752-7.033A5.872,5.872,0,0,1,470.118,536.3Z" transform="translate(-389.958 -429.112)" fill="#ffb9b9"/>
      <path id="Path_121" data-name="Path 121" d="M406.544,446.336s12.465,3.942,13.765,5.761,1.82-1.3,5.459,10.657a124.972,124.972,0,0,1,4.549,23.524s-8.968,2.989-7.928,14.686-1.56,24.434-1.56,24.434h-3.245L410.432,503.3l8.578-33.531S406.815,449.153,406.544,446.336Z" transform="translate(-350.027 -378.957)" fill="#575a89"/>
      <circle id="Ellipse_10" data-name="Ellipse 10" cx="15.596" cy="15.596" r="15.596" transform="translate(36.75 25.313)" fill="#ffb9b9"/>
      <path id="Path_122" data-name="Path 122" d="M343.934,372.236s-4.419,14.556-.52,16.636,8.318,11.437,8.318,11.437l-6.758,7.538h-15.6l-7.018-7.8L319.5,386.792l3.9-3.119s4.159-10.4,4.159-15.856S343.934,372.236,343.934,372.236Z" transform="translate(-285.609 -319.63)" fill="#ffb9b9"/>
      <path id="Path_123" data-name="Path 123" d="M327.472,437.079s-3.119-.78-1.3,2.339,3.639,8.838-2.859,9.1-13-3.119-15.076-10.137-2.859-6.5-3.639-6.238-9.1,8.838-9.1,8.838l2.859,16.116L299.4,514.8h37.95s1.56-16.636-1.04-20.535,2.339-13.777,2.339-13.777,4.419-6.758,1.04-19.755S328.772,437.079,327.472,437.079Z" transform="translate(-267.847 -368.358)" fill="#0f5da3"/>
      <path id="Path_124" data-name="Path 124" d="M265.714,431a6.841,6.841,0,0,0-7.278,1.3c-3.379,3.119-10.917,5.719-10.917,7.278s6.5,46.008,2.079,53.806-9.1,20.275-9.1,20.275h21.682s3.532-13,7.171-20.015,3.379-26.773,2.339-32.752S265.714,431,265.714,431Z" transform="translate(-227.144 -367.215)" fill="#575a89"/>
      <path id="Path_125" data-name="Path 125" d="M118.5,539.879l1.266,13.776h14.049L132.536,536.5Z" transform="translate(-102.804 -407.214)" fill="#ffb9b9"/>
      <path id="Path_126" data-name="Path 126" d="M364.5,460.815l3.379,21.055H443l6.5-42.369Z" transform="translate(-284.86 -335.427)" fill="#3f3d56"/>
      <path id="Path_127" data-name="Path 127" d="M427.935,428.5l.78,3.9L331.5,455.793v-3.379Z" transform="translate(-260.438 -327.287)" fill="#3f3d56"/>
      <path id="Path_128" data-name="Path 128" d="M543.02,453.28l-.52,4.419,5.719-.78-2.339-4.419Z" transform="translate(-416.592 -345.048)" fill="#3f3d56"/>
      <path id="Path_129" data-name="Path 129" d="M554.5,431.45s11.437-.78,14.556,8.058,10.4,24.694,13.257,27.033,5.978,8.578,5.459,10.657" transform="translate(-459.524 -367.927)" fill="none" stroke="#3f3d56" stroke-miterlimit="10" stroke-width="5"/>
      <path id="Path_130" data-name="Path 130" d="M542.5,424.709c0,1.22-1.3,2.209-3.379,2.209S536,425.93,536,424.709s1.038-2.209,3.119-2.209S542.5,423.489,542.5,424.709Z" transform="translate(-445.833 -361.316)" fill="#0f5da3"/>
      <path id="Path_131" data-name="Path 131" d="M427.457,482.9s1.949-8.188-1.69-20.145-4.159-8.838-5.459-10.657-13.765-5.761-13.765-5.761c.089.926,1.466,3.773,3.274,7.18a13.828,13.828,0,0,0-1.466-3.5c-1.82-3.119,1.3-2.339,1.3-2.339,1.3,0,8.838,10.657,12.217,23.654s-1.04,19.755-1.04,19.755Z" transform="translate(-350.027 -378.957)" fill="#575a89"/>
      <path id="Path_132" data-name="Path 132" d="M407,446s1.539,5.838,2.849,6.688,9.079,8.922,9.079,8.922l-1.011-6.512-4.159-6.238-1.106-.8Z" transform="translate(-350.365 -378.708)" fill="#575a89"/>
      <path id="Path_133" data-name="Path 133" d="M248,476.887l.362-13.387s-8.55,3.639-9.33,19.235,1.3,44.969,4.159,45.228,16.376-2.859,16.376-2.859,2.079-37.69,1.3-42.629S248,476.887,248,476.887Z" transform="translate(-225.933 -391.659)" opacity="0.1"/>
      <path id="Path_134" data-name="Path 134" d="M243.467,463.5H241.36s-8.55,3.639-9.33,19.235,1.3,44.969,4.159,45.228,16.376-2.859,16.376-2.859,2.079-37.69,1.3-42.629S243.467,463.5,243.467,463.5Z" transform="translate(-220.753 -391.659)" fill="#575a89"/>
      <ellipse id="Ellipse_11" data-name="Ellipse 11" cx="16.5" cy="18" rx="16.5" ry="18" transform="translate(17.205 18.832)" fill="#3f3d56"/>
      <ellipse id="Ellipse_12" data-name="Ellipse 12" cx="3" cy="4.5" rx="3" ry="4.5" transform="translate(42.205 41.832)" fill="#ffb9b9"/>
      <circle id="Ellipse_13" data-name="Ellipse 13" cx="13" cy="13" r="13" transform="translate(5.205 5.832)" fill="#3f3d56"/>
      <path id="Path_135" data-name="Path 135" d="M208.475,269.8a13.256,13.256,0,0,1-19.207-10.557,13.255,13.255,0,1,0,26.3.738A13.236,13.236,0,0,1,208.475,269.8Z" transform="translate(-189.116 -240.496)" fill="#3f3d56"/>
      <path id="Path_136" data-name="Path 136" d="M211.863,207.994a13.256,13.256,0,0,1,6.676-20.876,13.255,13.255,0,1,0,4.321,25.952A13.236,13.236,0,0,1,211.863,207.994Z" transform="translate(-201.49 -187.119)" fill="#3f3d56"/>
      <ellipse id="Ellipse_14" data-name="Ellipse 14" cx="9.5" cy="7" rx="9.5" ry="7" transform="translate(44.205 21.832)" fill="#3f3d56"/>
    </g>
  </g>
</svg>
