<svg xmlns="http://www.w3.org/2000/svg" xmlns:xlink="http://www.w3.org/1999/xlink" width="416" height="200" viewBox="0 0 416 200">
  <defs>
    <linearGradient id="linear-gradient" x1="0.5" y1="1" x2="0.5" gradientUnits="objectBoundingBox">
      <stop offset="0" stop-color="gray" stop-opacity="0.251"/>
      <stop offset="0.54" stop-color="gray" stop-opacity="0.122"/>
      <stop offset="1" stop-color="gray" stop-opacity="0.102"/>
    </linearGradient>
  </defs>
  <g id="Group_14" data-name="Group 14" transform="translate(-1318 -313)">
    <g id="Group_6" data-name="Group 6" transform="translate(-25 -13)">
      <rect id="Rectangle_24" data-name="Rectangle 24" width="416" height="200" rx="16" transform="translate(1343 326)" fill="#6379ad"/>
    </g>
    <g id="ysf" transform="translate(1441 344)">
      <g id="Group_9" data-name="Group 9" transform="translate(0 3.815)" opacity="0.5">
        <rect id="Rectangle_25" data-name="Rectangle 25" width="91.683" height="84.59" rx="4.5" fill="url(#linear-gradient)"/>
      </g>
      <rect id="Rectangle_26" data-name="Rectangle 26" width="89.568" height="82.538" rx="4.5" transform="translate(1.118 4.471)" fill="#f5f5f5"/>
      <rect id="Rectangle_27" data-name="Rectangle 27" width="15.106" height="13.596" rx="4.5" transform="translate(8.022 18.066)" fill="#cbdb7a"/>
      <rect id="Rectangle_28" data-name="Rectangle 28" width="60.048" height="1.51" rx="0.755" transform="translate(27.658 18.066)" fill="#e0e0e0"/>
      <rect id="Rectangle_29" data-name="Rectangle 29" width="60.048" height="1.51" rx="0.755" transform="translate(27.658 22.598)" fill="#e0e0e0"/>
      <rect id="Rectangle_30" data-name="Rectangle 30" width="81.196" height="1.51" rx="0.755" transform="translate(6.51 39.046)" fill="#e0e0e0"/>
      <rect id="Rectangle_31" data-name="Rectangle 31" width="81.196" height="1.51" rx="0.755" transform="translate(6.51 43.576)" fill="#e0e0e0"/>
      <rect id="Rectangle_32" data-name="Rectangle 32" width="81.196" height="1.51" rx="0.755" transform="translate(6.51 49.62)" fill="#e0e0e0"/>
      <rect id="Rectangle_33" data-name="Rectangle 33" width="46.827" height="1.51" rx="0.755" transform="translate(6.51 54.15)" fill="#e0e0e0"/>
      <rect id="Rectangle_34" data-name="Rectangle 34" width="81.196" height="1.51" rx="0.755" transform="translate(6.51 60.178)" fill="#e0e0e0"/>
      <rect id="Rectangle_35" data-name="Rectangle 35" width="81.196" height="1.51" rx="0.755" transform="translate(6.51 64.71)" fill="#e0e0e0"/>
      <rect id="Rectangle_36" data-name="Rectangle 36" width="81.196" height="1.51" rx="0.755" transform="translate(6.51 70.752)" fill="#e0e0e0"/>
      <rect id="Rectangle_37" data-name="Rectangle 37" width="46.827" height="1.51" rx="0.755" transform="translate(6.51 75.284)" fill="#e0e0e0"/>
      <g id="Group_10" data-name="Group 10" transform="translate(13.838 23.362)" opacity="0.5">
        <rect id="Rectangle_38" data-name="Rectangle 38" width="91.683" height="84.59" rx="4.5" fill="url(#linear-gradient)"/>
      </g>
      <rect id="Rectangle_39" data-name="Rectangle 39" width="89.568" height="82.538" rx="4.5" transform="translate(14.956 24.018)" fill="#fff"/>
      <rect id="Rectangle_40" data-name="Rectangle 40" width="15.106" height="13.596" rx="4.5" transform="translate(21.858 37.613)" fill="#cbdb7a"/>
      <rect id="Rectangle_41" data-name="Rectangle 41" width="60.048" height="1.51" rx="0.755" transform="translate(41.495 37.613)" fill="#e0e0e0"/>
      <rect id="Rectangle_42" data-name="Rectangle 42" width="60.048" height="1.51" rx="0.755" transform="translate(41.495 42.145)" fill="#e0e0e0"/>
      <rect id="Rectangle_43" data-name="Rectangle 43" width="81.196" height="1.51" rx="0.755" transform="translate(20.348 58.593)" fill="#e0e0e0"/>
      <rect id="Rectangle_44" data-name="Rectangle 44" width="81.196" height="1.51" rx="0.755" transform="translate(20.348 63.125)" fill="#e0e0e0"/>
      <rect id="Rectangle_45" data-name="Rectangle 45" width="81.196" height="1.51" rx="0.755" transform="translate(20.348 69.167)" fill="#e0e0e0"/>
      <rect id="Rectangle_46" data-name="Rectangle 46" width="46.827" height="1.51" rx="0.755" transform="translate(20.348 73.699)" fill="#e0e0e0"/>
      <rect id="Rectangle_47" data-name="Rectangle 47" width="81.196" height="1.51" rx="0.755" transform="translate(20.348 79.725)" fill="#e0e0e0"/>
      <rect id="Rectangle_48" data-name="Rectangle 48" width="81.196" height="1.51" rx="0.755" transform="translate(20.348 84.257)" fill="#e0e0e0"/>
      <rect id="Rectangle_49" data-name="Rectangle 49" width="81.196" height="1.51" rx="0.755" transform="translate(20.348 90.299)" fill="#e0e0e0"/>
      <rect id="Rectangle_50" data-name="Rectangle 50" width="46.827" height="1.51" rx="0.755" transform="translate(20.348 94.831)" fill="#e0e0e0"/>
      <line id="Line_1" data-name="Line 1" y1="0.811" x2="0.858" transform="translate(105.52 53.67)" fill="none" stroke="#535461" stroke-miterlimit="10" stroke-width="1"/>
      <line id="Line_2" data-name="Line 2" y1="29.798" x2="31.489" transform="translate(108.178 22.169)" fill="none" stroke="#535461" stroke-miterlimit="10" stroke-width="1" stroke-dasharray="12.58 12.58"/>
      <line id="Line_3" data-name="Line 3" y1="0.811" x2="0.856" transform="translate(140.566 20.506)" fill="none" stroke="#535461" stroke-miterlimit="10" stroke-width="1"/>
      <line id="Line_4" data-name="Line 4" x2="0.88" y2="0.789" transform="translate(105.841 84.257)" fill="none" stroke="#535461" stroke-miterlimit="10" stroke-width="1"/>
      <line id="Line_5" data-name="Line 5" x2="31.898" y2="28.636" transform="translate(108.544 86.682)" fill="none" stroke="#535461" stroke-miterlimit="10" stroke-width="1" stroke-dasharray="12.44 12.44"/>
      <line id="Line_6" data-name="Line 6" x2="0.878" y2="0.787" transform="translate(141.354 116.137)" fill="none" stroke="#535461" stroke-miterlimit="10" stroke-width="1"/>
      <g id="Group_11" data-name="Group 11" transform="translate(118.319 87.531)" opacity="0.5">
        <circle id="Ellipse_15" data-name="Ellipse 15" cx="25.453" cy="25.453" r="25.453" fill="url(#linear-gradient)"/>
      </g>
      <circle id="Ellipse_16" data-name="Ellipse 16" cx="24.915" cy="24.915" r="24.915" transform="translate(118.856 87.928)" fill="#f5f5f5"/>
      <path id="Path_137" data-name="Path 137" d="M860.186,626.564c0,9.176-5.989,19.391-13.373,19.391s-13.373-10.217-13.373-19.391,5.989-13.834,13.373-13.834S860.186,617.386,860.186,626.564Z" transform="translate(-702.634 -511.476)" fill="#aa9740"/>
      <path id="Path_138" data-name="Path 138" d="M841.3,760.182a24.805,24.805,0,0,0,13.7-4.1c-.917-5.018-4.412-5.3-4.412-5.3H831.331s-3.3.272-4.331,4.886A24.805,24.805,0,0,0,841.3,760.182Z" transform="translate(-697.462 -622.348)" fill="#cbdb7a"/>
      <path id="Path_139" data-name="Path 139" d="M709.61,621.29h7.705v6.564a3.453,3.453,0,0,1-3.453,3.453h-.8a3.453,3.453,0,0,1-3.453-3.453V621.29Z" transform="translate(-569.912 -498.979)" opacity="0.1"/>
      <path id="Path_140" data-name="Path 140" d="M710.318,619.84h6.388a.66.66,0,0,1,.659.659v5.906a3.453,3.453,0,0,1-3.453,3.453h-.8a3.453,3.453,0,0,1-3.453-3.453V620.5a.659.659,0,0,1,.658-.659Z" transform="translate(-569.952 -497.814)" fill="#fdb797"/>
      <path id="Path_141" data-name="Path 141" d="M878.68,730.705a11.089,11.089,0,0,0,7.705.022v-.947H878.68Z" transform="translate(-738.968 -605.483)" opacity="0.1"/>
      <circle id="Ellipse_17" data-name="Ellipse 17" cx="11.044" cy="11.044" r="11.044" transform="translate(132.536 103.648)" fill="#fdb797"/>
      <ellipse id="Ellipse_18" data-name="Ellipse 18" cx="1.028" cy="1.927" rx="1.028" ry="1.927" transform="translate(131.735 112.295)" fill="#fdb797"/>
      <ellipse id="Ellipse_19" data-name="Ellipse 19" cx="1.028" cy="1.927" rx="1.028" ry="1.927" transform="translate(153.312 112.295)" fill="#fdb797"/>
      <path id="Path_142" data-name="Path 142" d="M848.61,625.28s6.253,8.552,20.565,5.628c0,0,1.6-1.945-2.293-7.92S852.154,617.986,848.61,625.28Z" transform="translate(-714.818 -516.578)" opacity="0.1"/>
      <path id="Path_143" data-name="Path 143" d="M848.61,624.578s6.253,8.546,20.565,5.628c0,0,1.6-1.945-2.293-7.92S852.154,617.282,848.61,624.578Z" transform="translate(-714.818 -516.014)" fill="#aa9740"/>
      <g id="Group_12" data-name="Group 12" transform="translate(118.793 0)" opacity="0.5">
        <circle id="Ellipse_20" data-name="Ellipse 20" cx="25.453" cy="25.453" r="25.453" fill="url(#linear-gradient)"/>
      </g>
      <circle id="Ellipse_21" data-name="Ellipse 21" cx="24.915" cy="24.915" r="24.915" transform="translate(119.382 0.374)" fill="#f5f5f5"/>
      <path id="Path_144" data-name="Path 144" d="M843.682,315.562a24.805,24.805,0,0,0,13.7-4.1c-.917-5.018-4.412-5.3-4.412-5.3H833.7s-3.3.272-4.331,4.886A24.805,24.805,0,0,0,843.682,315.562Z" transform="translate(-699.365 -265.259)" fill="#cbdb7a"/>
      <circle id="Ellipse_22" data-name="Ellipse 22" cx="12.027" cy="12.027" r="12.027" transform="translate(132.028 12.737)" fill="#333"/>
      <path id="Path_145" data-name="Path 145" d="M712,176.67h7.705v6.562a3.453,3.453,0,0,1-3.453,3.453h-.8A3.453,3.453,0,0,1,712,183.232Z" transform="translate(-571.831 -141.89)" opacity="0.1"/>
      <path id="Path_146" data-name="Path 146" d="M712.663,175.22h6.388a.66.66,0,0,1,.66.66v5.906a3.453,3.453,0,0,1-3.453,3.453h-.8A3.453,3.453,0,0,1,712,181.785v-5.906a.66.66,0,0,1,.663-.66Z" transform="translate(-571.831 -140.725)" fill="#fdb797"/>
      <path id="Path_147" data-name="Path 147" d="M881.1,286.085a11.09,11.09,0,0,0,7.705.022v-.947H881.1Z" transform="translate(-740.911 -248.393)" opacity="0.1"/>
      <circle id="Ellipse_23" data-name="Ellipse 23" cx="11.044" cy="11.044" r="11.044" transform="translate(133.011 16.117)" fill="#fdb797"/>
      <path id="Path_148" data-name="Path 148" d="M860.78,174.008s4.654,9.45,17.785,3.961l-3.057-4.794-5.42-1.945Z" transform="translate(-724.592 -156.892)" opacity="0.1"/>
      <path id="Path_149" data-name="Path 149" d="M860.78,173.3s4.654,9.45,17.785,3.961l-3.057-4.8-5.42-1.945Z" transform="translate(-724.592 -156.322)" fill="#333"/>
      <path id="Path_150" data-name="Path 150" d="M859.629,150.293a6.38,6.38,0,0,1,1.575-2.573c2.166-2.148,5.735-2.6,7.562-5.05a1.429,1.429,0,0,1-.656,2.016c1.748-.012,3.778-.165,4.768-1.606a3.274,3.274,0,0,1-.551,3.457c1.551.071,3.207,1.124,3.307,2.673a3.089,3.089,0,0,1-1.429,2.6,7.924,7.924,0,0,1-2.886,1.087C868.376,153.551,857.7,156.277,859.629,150.293Z" transform="translate(-723.482 -133.955)" fill="#333"/>
      <ellipse id="Ellipse_24" data-name="Ellipse 24" cx="1.028" cy="1.927" rx="1.028" ry="1.927" transform="translate(131.977 25.224)" fill="#fdb797"/>
      <ellipse id="Ellipse_25" data-name="Ellipse 25" cx="1.028" cy="1.927" rx="1.028" ry="1.927" transform="translate(154.072 25.224)" fill="#fdb797"/>
    </g>
  </g>
</svg>
